<svg width="1730" height="1689" viewBox="0 0 1730 1689" fill="none" xmlns="http://www.w3.org/2000/svg">
<path d="M201.638 422.638C202.058 425.158 202.758 428.238 203.178 429.358C203.878 431.178 201.778 431.458 189.598 431.598C172.798 431.878 163.838 434.118 133.738 445.178C109.938 453.998 110.918 454.418 115.958 437.478C117.498 432.018 118.478 427.258 118.058 426.838C115.398 424.318 84.738 447.838 68.078 465.198C57.158 476.538 49.878 487.598 44.418 500.758C39.518 512.658 35.038 530.578 33.778 543.738C33.358 549.338 32.378 553.958 31.818 553.958C31.118 553.958 28.458 550.038 25.658 545.138C17.818 531.418 18.378 531.838 15.858 537.858C14.598 540.798 11.798 551.858 9.83799 562.218C6.33799 580.138 6.05799 583.778 6.05799 621.158C5.91799 676.598 10.958 714.258 24.678 761.158C34.058 793.638 56.318 838.718 70.038 853.138C75.358 858.738 72.838 859.158 66.538 853.838C64.018 851.738 58.558 847.538 54.638 844.598C50.578 841.658 47.218 838.858 47.218 838.158C47.218 837.598 42.178 832.138 36.158 826.118C24.398 814.498 6.89799 789.858 5.63799 783.138C4.93799 779.498 1.85799 776.698 0.317993 778.238C0.0379927 778.518 1.57799 786.918 3.81799 796.858C8.85799 818.978 9.13799 824.858 5.21799 826.958C1.57799 828.918 1.57799 836.058 5.07799 852.858C13.058 890.098 27.338 919.358 51.418 948.198C64.718 964.018 91.878 986.978 105.318 993.978C114.278 998.458 108.818 998.318 89.918 993.558C80.258 991.178 71.718 989.358 70.738 989.638C69.898 989.918 71.858 991.878 75.358 993.838C78.718 995.658 90.898 1003.08 102.378 1010.08C126.458 1024.92 127.018 1024.22 92.718 1020.86C61.778 1017.78 63.598 1017.64 64.718 1024.64C66.678 1036.54 85.998 1064.96 102.238 1079.8C124.358 1099.82 176.158 1128.94 215.918 1143.5C257.358 1158.62 277.378 1162.68 314.058 1163.38L332.538 1163.66L332.258 1136.36C332.118 1104.58 333.518 1098 344.998 1077.7C356.758 1056.98 371.178 1045.36 393.578 1038.5C402.678 1035.7 420.878 1034.44 422.838 1036.54C424.098 1037.66 405.758 1048.02 402.398 1048.16C400.718 1048.16 400.018 1049 400.298 1050.54C400.718 1052.64 402.538 1053.2 410.798 1053.48C423.538 1054.04 429.418 1051.24 441.318 1039.2C455.598 1024.78 464.418 1003.78 469.458 972.138C473.798 944.698 474.218 839.978 470.018 812.258C466.378 787.618 456.158 755.558 443.278 727.698C440.338 721.258 437.818 715.658 437.818 715.378C437.818 714.398 449.998 728.118 456.578 736.518C459.798 740.438 462.878 743.938 463.438 744.218C463.998 744.358 466.098 747.158 468.058 750.098C469.878 753.038 471.978 755.558 472.818 755.558C477.018 755.558 478.558 721.678 475.058 705.158C466.938 667.078 440.898 616.818 405.618 570.758C384.478 543.178 334.778 497.258 297.118 470.518C265.058 447.698 212.558 418.158 204.158 418.158C201.218 418.158 200.938 418.578 201.638 422.638Z" fill="white"/>
<path d="M203.4 440.175C203.8 442.575 204.467 445.508 204.867 446.575C205.534 448.308 203.534 448.575 191.934 448.708C175.934 448.975 167.4 451.108 138.734 461.642C116.067 470.042 117 470.442 121.8 454.308C123.267 449.108 124.2 444.575 123.8 444.175C121.267 441.775 92.067 464.175 76.2004 480.708C65.8004 491.508 58.867 502.042 53.667 514.575C49.0004 525.908 44.7337 542.975 43.5337 555.508C43.1337 560.842 42.2004 565.242 41.667 565.242C41.0004 565.242 38.467 561.508 35.8004 556.842C28.3337 543.775 28.867 544.175 26.467 549.908C25.267 552.708 22.6003 563.242 20.7337 573.108C17.4003 590.175 17.1337 593.642 17.1337 629.242C17.0003 682.042 21.8003 717.908 34.867 762.575C43.8004 793.508 65.0004 836.442 78.067 850.175C83.1337 855.508 80.7337 855.908 74.7337 850.842C72.3337 848.842 67.1337 844.842 63.4004 842.042C59.5337 839.242 56.3337 836.575 56.3337 835.908C56.3337 835.375 51.5337 830.175 45.8004 824.442C34.6004 813.375 17.9337 789.908 16.7337 783.508C16.067 780.042 13.1337 777.375 11.667 778.842C11.4003 779.108 12.867 787.108 15.0003 796.575C19.8003 817.642 20.067 823.242 16.3337 825.242C12.867 827.108 12.867 833.908 16.2003 849.908C23.8004 885.375 37.4004 913.242 60.3337 940.708C73.0004 955.775 98.867 977.642 111.667 984.308C120.2 988.575 115 988.442 97.0004 983.908C87.8004 981.642 79.667 979.908 78.7337 980.175C77.9337 980.442 79.8004 982.308 83.1337 984.175C86.3337 985.908 97.9337 992.975 108.867 999.642C131.8 1013.77 132.334 1013.11 99.667 1009.91C70.2004 1006.97 71.9337 1006.84 73.0004 1013.51C74.867 1024.84 93.267 1051.91 108.734 1066.04C129.8 1085.11 179.134 1112.84 217 1126.71C256.467 1141.11 275.534 1144.97 310.467 1145.64L328.067 1145.91L327.8 1119.91C327.667 1089.64 329 1083.37 339.934 1064.04C351.134 1044.31 364.867 1033.24 386.2 1026.71C394.867 1024.04 412.2 1022.84 414.067 1024.84C415.267 1025.91 397.8 1035.77 394.6 1035.91C393 1035.91 392.334 1036.71 392.6 1038.17C393 1040.17 394.734 1040.71 402.6 1040.97C414.734 1041.51 420.334 1038.84 431.667 1027.37C445.267 1013.64 453.667 993.642 458.467 963.508C462.6 937.375 463 837.642 459 811.242C455.534 787.775 445.8 757.242 433.534 730.708C430.734 724.575 428.334 719.242 428.334 718.975C428.334 718.042 439.934 731.108 446.2 739.108C449.267 742.842 452.2 746.175 452.734 746.442C453.267 746.575 455.267 749.242 457.134 752.042C458.867 754.842 460.867 757.242 461.667 757.242C465.667 757.242 467.134 724.975 463.8 709.242C456.067 672.975 431.267 625.108 397.667 581.242C377.534 554.975 330.2 511.242 294.334 485.775C263.8 464.042 213.8 435.908 205.8 435.908C203 435.908 202.734 436.308 203.4 440.175Z" fill="white"/>
<path d="M203.4 440.175C203.8 442.575 204.467 445.508 204.867 446.575C205.534 448.308 203.534 448.575 191.934 448.708C175.934 448.975 167.4 451.108 138.734 461.642C116.067 470.042 117 470.442 121.8 454.308C123.267 449.108 124.2 444.575 123.8 444.175C121.267 441.775 92.067 464.175 76.2004 480.708C65.8004 491.508 58.867 502.042 53.667 514.575C49.0004 525.908 44.7337 542.975 43.5337 555.508C43.1337 560.842 42.2003 565.242 41.667 565.242C41.0003 565.242 38.467 561.508 35.8003 556.842C28.3337 543.775 28.867 544.175 26.467 549.908C25.267 552.708 22.6003 563.242 20.7337 573.108C17.4003 590.175 17.1337 593.642 17.1337 629.242C17.0003 682.042 21.8003 717.908 34.867 762.575C43.8003 793.508 65.0004 836.442 78.067 850.175C83.1337 855.508 80.7337 855.908 74.7337 850.842C72.3337 848.842 67.1337 844.842 63.4004 842.042C59.5337 839.242 56.3337 836.575 56.3337 835.908C56.3337 835.375 51.5337 830.175 45.8004 824.442C34.6004 813.375 17.9337 789.908 16.7337 783.508C16.067 780.042 13.1337 777.375 11.667 778.842C11.4003 779.108 12.867 787.108 15.0003 796.575C19.8003 817.642 20.067 823.242 16.3337 825.242C12.867 827.108 12.867 833.908 16.2003 849.908C23.8003 885.375 37.4004 913.242 60.3337 940.708C73.0004 955.775 98.867 977.642 111.667 984.308C120.2 988.575 115 988.442 97.0004 983.908C87.8004 981.642 79.667 979.908 78.7337 980.175C77.9337 980.442 79.8004 982.308 83.1337 984.175C86.3337 985.908 97.9337 992.975 108.867 999.642C131.8 1013.77 132.334 1013.11 99.667 1009.91C70.2004 1006.97 71.9337 1006.84 73.0004 1013.51C74.867 1024.84 93.267 1051.91 108.734 1066.04C129.8 1085.11 179.134 1112.84 217 1126.71C256.467 1141.11 275.534 1144.97 310.467 1145.64L328.067 1145.91L327.8 1119.91C327.667 1089.64 329 1083.37 339.934 1064.04C351.134 1044.31 364.867 1033.24 386.2 1026.71C394.867 1024.04 412.2 1022.84 414.067 1024.84C415.267 1025.91 397.8 1035.77 394.6 1035.91C393 1035.91 392.334 1036.71 392.6 1038.17C393 1040.17 394.734 1040.71 402.6 1040.97C414.734 1041.51 420.334 1038.84 431.667 1027.37C445.267 1013.64 453.667 993.642 458.467 963.508C462.6 937.375 463 837.642 459 811.242C455.534 787.775 445.8 757.242 433.534 730.708C430.734 724.575 428.334 719.242 428.334 718.975C428.334 718.042 439.934 731.108 446.2 739.108C449.267 742.842 452.2 746.175 452.734 746.442C453.267 746.575 455.267 749.242 457.134 752.042C458.867 754.842 460.867 757.242 461.667 757.242C465.667 757.242 467.134 724.975 463.8 709.242C456.067 672.975 431.267 625.108 397.667 581.242C377.534 554.975 330.2 511.242 294.334 485.775C263.8 464.042 213.8 435.908 205.8 435.908C203 435.908 202.734 436.308 203.4 440.175ZM226.334 537.908C251 543.108 274.734 556.042 314.734 586.308C337.4 603.375 341.934 607.375 350.067 617.908C372.867 647.242 382.867 666.308 385.8 685.642C387.667 697.908 386.067 702.442 379.267 704.442C371.267 706.708 371.8 713.642 382.467 745.508C399 794.975 401.667 809.108 401.667 846.708C401.667 878.308 399.667 894.442 392.067 924.575L386.334 947.242L381 949.775C373.134 953.642 365.934 953.375 362.734 948.975C357.267 941.775 359.934 920.708 369.267 897.642C371.8 891.242 374.734 881.642 375.8 876.175C377.8 865.642 378.334 845.775 376.6 844.708C376.067 844.442 372.067 850.975 367.667 859.375C363.267 867.642 359.267 874.575 358.867 874.575C358.467 874.575 357.934 866.575 357.8 856.842C357.4 826.708 355.134 790.842 352.867 780.175C349.667 764.708 341.134 739.775 333.534 724.042C327 710.308 305.667 673.508 300.067 666.308C298.467 664.308 297.534 662.308 297.934 661.908C298.334 661.508 307 663.242 317.134 665.642C344.067 672.308 344.334 672.442 344.334 669.108C344.334 667.508 342.067 662.042 339.4 656.708C335.4 649.242 330.467 643.242 315 627.775C304.334 617.108 291.534 605.242 286.334 601.508C267.4 587.642 217.534 566.042 206.467 566.842L201 567.375L209.934 571.642C222.2 577.508 260.867 599.775 272.867 607.775C286.6 617.108 301.134 630.175 305 636.842C306.867 639.908 308.334 642.842 308.334 643.375C308.334 643.908 296.6 643.908 282.334 643.508L256.334 642.575L258.6 646.308C259.934 648.308 262.6 652.042 264.467 654.575C274.334 667.242 302.334 719.375 312.2 743.108C325.267 774.442 329.667 795.108 329.667 824.708C329.667 852.975 323.4 891.908 316.2 908.842C314.867 912.042 314.334 914.575 315 914.575C317 914.575 334.734 909.508 336.334 908.575C338.6 907.242 337.8 911.508 335.4 913.375C332.467 915.908 324.867 932.575 322.334 942.042C321.267 946.308 319.8 954.442 319 960.308C317.4 973.775 313.267 982.575 303.934 993.108C299.8 997.642 294.334 1004.71 291.667 1008.71C283.267 1021.37 274.6 1042.84 273 1054.97L272.2 1061.37L267.267 1060.44C252.334 1058.04 230.334 1050.84 217.4 1044.44C208.734 1040.04 178.067 1020.44 173.4 1016.31C169.267 1012.57 170.734 1011.91 181.667 1011.91C194.334 1011.91 194.734 1011.24 188.334 998.575C182.2 986.308 181.934 986.575 199.667 986.575C218.867 986.575 219.534 984.975 202.6 978.708C183.4 971.642 160.867 961.775 152.067 956.442C137.934 947.908 116.334 925.642 116.334 919.775C116.334 917.375 117.534 917.242 132.334 917.242C141.667 917.242 148.334 916.708 148.334 915.908C148.334 913.642 140.334 905.642 136.334 903.908C134.2 902.975 132.067 901.242 131.667 900.042C131.267 898.842 128.067 895.775 124.6 893.242C115 886.175 107 879.375 107 878.442C107 875.775 117.534 874.708 150.334 874.042C184.734 873.508 193.667 872.842 193.667 870.575C193.667 870.042 190.2 867.508 186.067 864.842C160.467 849.108 135.8 826.842 119.267 804.708C98.067 776.175 89.0004 750.042 85.667 707.375C84.2004 688.442 83.8004 622.175 85.267 620.842C85.667 620.308 88.867 622.042 92.3337 624.442L98.7337 628.975L97.9337 606.708C97.4004 586.175 97.5337 583.642 100.334 575.108C103.134 566.308 110.734 551.908 112.467 551.908C113.667 551.908 115 562.708 115 571.375C115 579.642 116.467 580.575 118.734 574.042C122.067 564.975 137.267 547.242 146.334 541.908C151 539.108 158.467 537.242 171.667 535.375C180.334 534.175 216.067 535.775 226.334 537.908Z" fill="black"/>
<path d="M532.322 0.807254C514.402 4.58725 496.202 13.4072 466.102 32.5872C463.862 33.9872 462.182 35.5273 462.182 35.9473C462.182 37.2073 468.482 38.1873 487.242 40.1473C500.962 41.4073 512.862 43.7873 507.262 44.0673C503.062 44.3473 481.362 61.1473 469.042 73.7473C455.042 88.1673 436.282 113.367 422.842 135.487C408.142 159.847 401.562 179.447 397.082 211.647C394.282 231.667 394.282 281.647 397.082 309.507C399.322 331.627 400.022 336.387 404.782 361.307C409.542 386.227 409.542 385.807 407.582 385.807C404.642 385.807 393.302 378.107 387.702 372.227C381.682 365.787 368.242 346.047 363.202 335.687C361.242 331.627 359.422 328.547 359.142 328.827C357.882 329.947 361.522 406.947 363.482 422.907C368.522 465.327 378.182 504.107 391.762 537.007C408.422 577.607 437.122 620.307 465.542 647.327C486.962 667.487 501.242 675.187 539.882 687.367C565.222 695.487 572.502 699.267 578.242 707.247C584.122 715.227 586.502 721.247 589.582 735.387C590.982 741.967 592.382 747.567 592.802 747.847C593.082 748.127 597.282 744.207 602.182 739.027C607.082 733.707 627.522 712.847 647.682 692.407C667.842 671.967 686.742 652.087 689.962 648.307C702.562 632.767 719.782 609.387 719.782 607.707C719.782 606.867 721.042 604.907 722.442 603.647C724.962 601.267 725.102 601.407 726.502 607.987C727.342 611.627 729.022 622.127 730.422 631.087C731.822 640.607 733.642 647.607 734.482 647.607C735.882 647.607 779.282 561.227 785.442 545.687C804.762 498.367 815.402 451.607 821.422 389.307C824.642 355.707 824.642 268.627 821.422 233.487C816.802 182.527 808.822 147.667 798.042 131.007C795.102 126.387 792.022 122.607 791.322 122.607C790.062 122.607 763.742 93.0673 737.702 62.4073C729.582 52.7473 721.602 43.6473 719.922 42.2473C718.382 40.7073 716.982 38.7472 716.982 37.6272C716.982 36.6472 715.722 35.8072 714.182 35.8072C710.822 35.8072 710.822 36.0872 713.762 41.8272C719.222 52.4672 730.282 105.527 727.622 108.327C727.062 108.747 716.702 99.3672 704.662 87.3272C689.682 72.3472 676.102 60.3072 661.822 49.6672C609.742 10.7472 589.582 1.36723 555.282 0.107233C546.042 -0.172767 535.682 0.107254 532.322 0.807254Z" fill="white"/>
<path d="M535.133 18.5751C518.067 22.1751 500.733 30.5751 472.067 48.8417C469.933 50.1751 468.333 51.6417 468.333 52.0417C468.333 53.2417 474.333 54.1751 492.2 56.0417C505.267 57.2417 516.6 59.5084 511.267 59.7751C507.267 60.0418 486.6 76.0417 474.867 88.0417C461.533 101.775 443.667 125.775 430.867 146.842C416.867 170.042 410.6 188.708 406.333 219.375C403.667 238.442 403.667 286.042 406.333 312.575C408.467 333.642 409.133 338.175 413.667 361.908C418.2 385.642 418.2 385.242 416.333 385.242C413.533 385.242 402.733 377.908 397.4 372.308C391.667 366.175 378.867 347.375 374.067 337.508C372.2 333.642 370.467 330.708 370.2 330.975C369 332.042 372.467 405.375 374.333 420.575C379.133 460.975 388.333 497.908 401.267 529.242C417.133 567.908 444.467 608.575 471.533 634.308C491.933 653.508 505.533 660.842 542.333 672.442C566.467 680.175 573.4 683.775 578.867 691.375C584.467 698.975 586.733 704.708 589.667 718.175C591 724.442 592.333 729.775 592.733 730.042C593 730.308 597 726.575 601.667 721.642C606.333 716.575 625.8 696.708 645 677.242C664.2 657.775 682.2 638.842 685.267 635.242C697.267 620.442 713.667 598.175 713.667 596.575C713.667 595.775 714.867 593.908 716.2 592.708C718.6 590.442 718.733 590.575 720.067 596.842C720.867 600.308 722.467 610.308 723.8 618.842C725.133 627.908 726.867 634.575 727.667 634.575C729 634.575 770.333 552.308 776.2 537.508C794.6 492.442 804.733 447.908 810.467 388.575C813.533 356.575 813.533 273.642 810.467 240.175C806.067 191.642 798.467 158.442 788.2 142.575C785.4 138.175 782.467 134.575 781.8 134.575C780.6 134.575 755.533 106.442 730.733 77.2418C723 68.0418 715.4 59.3751 713.8 58.0417C712.333 56.5751 711 54.7084 711 53.6417C711 52.7084 709.8 51.9084 708.333 51.9084C705.133 51.9084 705.133 52.1751 707.933 57.6417C713.133 67.7751 723.667 118.308 721.133 120.975C720.6 121.375 710.733 112.442 699.267 100.975C685 86.7084 672.067 75.2417 658.467 65.1084C608.867 28.0417 589.667 19.1084 557 17.9084C548.2 17.6417 538.333 17.9084 535.133 18.5751Z" fill="white"/>
<path d="M535.133 18.5751C518.067 22.1751 500.733 30.5751 472.067 48.8417C469.933 50.1751 468.333 51.6417 468.333 52.0417C468.333 53.2417 474.333 54.1751 492.2 56.0417C505.267 57.2417 516.6 59.5084 511.267 59.7751C507.267 60.0417 486.6 76.0417 474.867 88.0417C461.533 101.775 443.667 125.775 430.867 146.842C416.867 170.042 410.6 188.708 406.333 219.375C403.667 238.442 403.667 286.042 406.333 312.575C408.467 333.642 409.133 338.175 413.667 361.908C418.2 385.642 418.2 385.242 416.333 385.242C413.533 385.242 402.733 377.908 397.4 372.308C391.667 366.175 378.867 347.375 374.067 337.508C372.2 333.642 370.467 330.708 370.2 330.975C369 332.042 372.467 405.375 374.333 420.575C379.133 460.975 388.333 497.908 401.267 529.242C417.133 567.908 444.467 608.575 471.533 634.308C491.933 653.508 505.533 660.842 542.333 672.442C566.467 680.175 573.4 683.775 578.867 691.375C584.467 698.975 586.733 704.708 589.667 718.175C591 724.442 592.333 729.775 592.733 730.042C593 730.308 597 726.575 601.667 721.642C606.333 716.575 625.8 696.708 645 677.242C664.2 657.775 682.2 638.842 685.267 635.242C697.267 620.442 713.667 598.175 713.667 596.575C713.667 595.775 714.867 593.908 716.2 592.708C718.6 590.442 718.733 590.575 720.067 596.842C720.867 600.308 722.467 610.308 723.8 618.842C725.133 627.908 726.867 634.575 727.667 634.575C729 634.575 770.333 552.308 776.2 537.508C794.6 492.442 804.733 447.908 810.467 388.575C813.533 356.575 813.533 273.642 810.467 240.175C806.067 191.642 798.467 158.442 788.2 142.575C785.4 138.175 782.467 134.575 781.8 134.575C780.6 134.575 755.533 106.442 730.733 77.2417C723 68.0417 715.4 59.3751 713.8 58.0417C712.333 56.5751 711 54.7084 711 53.6417C711 52.7084 709.8 51.9084 708.333 51.9084C705.133 51.9084 705.133 52.1751 707.933 57.6417C713.133 67.7751 723.667 118.308 721.133 120.975C720.6 121.375 710.733 112.442 699.267 100.975C685 86.7084 672.067 75.2417 658.467 65.1084C608.867 28.0417 589.667 19.1084 557 17.9084C548.2 17.6417 538.333 17.9084 535.133 18.5751ZM573.267 80.0417C596.333 90.1751 622.2 103.242 634.333 111.108C649 120.708 660.2 130.308 694.6 162.708C710.867 178.042 724.467 190.575 724.733 190.575C725.133 190.575 725.8 188.175 726.333 185.242C728.2 174.042 730.2 178.042 735.8 204.575C751.267 278.042 752.333 285.775 752.333 320.708C752.333 360.575 750.067 384.042 742.333 425.908C734.333 469.375 721.667 524.308 719 527.108C717.933 528.175 713.8 516.575 711.667 506.575C710.2 499.508 708.333 496.442 706.867 498.708C706.2 499.775 705.667 502.308 705.667 504.442C705.667 514.842 687.267 555.108 675 572.042C667 582.842 647.533 603.908 645.4 603.908C642.467 603.908 646.067 575.642 651 561.242C655.4 548.308 664.867 529.375 670.6 522.308C673.4 518.975 680.467 510.842 686.2 504.308C707.533 480.442 716.333 460.575 716.333 436.308C716.333 428.175 716.2 427.908 713 427.908C711.133 427.908 696.333 430.975 680.2 434.708C663.933 438.308 650.333 441.108 649.933 440.708C649.667 440.308 651.667 436.842 654.6 432.975C660.6 425.108 674.333 400.708 680.467 386.842C689.8 366.308 696.733 342.575 701.133 316.575C704.6 296.842 704.6 250.042 701.133 234.575C693.133 198.042 673.133 164.575 644.733 140.442C640.067 136.442 635.667 133.508 635 133.908C634.067 134.575 641.4 150.042 646.2 157.508C648.867 161.642 671.933 215.642 675.667 226.708C679.533 237.775 681.667 269.908 679 277.775C678.2 280.442 677 282.575 676.6 282.575C675.533 282.575 667.667 269.375 660.733 255.908L655.667 245.908L655.267 251.642C655 254.842 655.533 261.642 656.2 266.575C659.4 286.575 657.533 335.108 653 353.908C648.2 373.242 630.067 401.108 607.933 422.975C599.8 430.842 593.667 437.642 594.067 438.042C594.467 438.575 598.733 437.908 603.4 436.575C608.2 435.242 612.6 434.442 613.4 434.708C614.6 435.242 605.667 448.042 594.2 462.175C591.667 465.242 589.667 467.908 589.667 468.175C589.667 469.108 617.933 466.575 636.867 464.042C665.533 460.042 665.133 459.908 656.733 467.642C640.733 482.042 622.467 506.308 612.6 525.908C601.933 547.508 598.067 562.175 595 594.575C594.2 602.975 593.4 610.042 593.133 610.175C593 610.442 585.267 608.575 576.2 606.042C556.733 600.575 532.467 590.842 510.467 579.508C492.733 570.308 479.267 558.975 468.867 544.442C457.933 529.108 446.067 500.442 439.133 472.575C435.933 459.642 425.667 407.108 425.667 403.642C425.667 400.842 425.267 400.842 448.2 405.375C460.333 407.908 469.667 408.575 469.667 407.242C469.667 406.708 468.733 404.708 467.667 402.575C465 397.375 456.867 364.042 454.333 347.242C452.867 338.442 451.933 319.775 451.4 291.775L450.6 249.775L456.333 230.442C467.933 191.642 476.333 173.908 496.067 147.508C515 122.042 531.667 106.975 558.067 91.6417C561.533 89.6417 564.333 86.9751 564.333 85.7751C564.333 84.5751 562.467 81.2417 560.2 78.4417C557.933 75.6417 556.467 73.2417 556.867 73.2417C557.267 73.2417 564.6 76.3084 573.267 80.0417Z" fill="black"/>
<path d="M1032.53 16.9067C1017.13 19.1467 995.295 24.6067 982.975 29.2267C963.655 36.5067 938.315 51.0667 918.295 66.1867C898.135 81.5867 862.855 119.667 868.735 119.667C870.415 119.667 880.495 113.927 890.015 107.767C895.895 103.707 896.735 105.247 891.835 111.687C879.235 128.627 859.495 170.487 848.295 204.507C838.215 235.027 820.155 311.187 819.175 326.867C818.615 335.827 818.755 335.827 821.135 332.467C822.535 330.507 827.435 323.787 832.055 317.347C836.815 311.047 840.595 305.167 840.595 304.467C840.595 303.627 841.295 303.067 841.995 303.067C843.815 303.067 843.815 304.747 841.435 311.747C839.475 317.487 827.295 361.727 818.055 396.307C814.135 411.567 813.575 415.347 813.015 440.267C812.035 477.787 814.135 489.827 829.675 534.067C833.595 545.267 838.215 557.307 840.035 560.947C841.995 564.727 842.975 567.667 842.555 567.667C841.995 567.667 838.915 565.287 835.695 562.347C819.595 548.067 815.395 544.987 815.395 547.787C815.395 552.687 818.475 559.687 829.115 578.867C842.835 603.787 852.215 616.947 869.855 635.147C898.555 665.107 922.355 678.967 977.235 697.867C1025.53 714.387 1108.13 738.467 1116.95 738.467C1121.29 738.467 1121.99 738.047 1121.43 735.947C1121.01 734.687 1120.03 729.507 1119.19 724.607C1117.65 716.207 1117.79 715.367 1121.29 708.367C1125.49 699.687 1135.57 689.887 1158.39 671.967C1191.57 646.207 1224.47 608.127 1248.27 567.947C1259.33 549.467 1281.17 506.627 1289.57 487.167C1294.61 475.687 1305.39 443.767 1305.39 440.687C1305.39 439.707 1304.41 438.867 1303.29 438.867C1302.17 438.867 1301.19 439.847 1301.19 441.107C1301.19 442.367 1299.93 445.027 1298.25 446.987C1292.93 453.987 1277.95 474.567 1273.33 481.147C1270.95 484.927 1268.15 487.867 1267.45 487.867C1266.61 487.867 1266.33 487.447 1266.75 486.747C1267.59 485.347 1280.47 442.507 1284.11 429.067C1287.61 416.327 1294.89 381.747 1297.83 363.407C1299.65 353.187 1300.35 336.387 1300.77 294.107C1301.47 235.167 1300.91 223.267 1297.55 223.267C1296.29 223.267 1295.59 224.667 1295.59 227.047C1295.59 232.227 1284.11 276.327 1278.09 294.387C1269.69 319.167 1260.73 337.787 1257.79 335.967C1256.25 334.987 1253.87 315.947 1252.89 296.767C1250.79 258.267 1245.19 222.987 1236.09 191.627C1227.83 162.507 1217.89 141.787 1200.81 117.987C1192.69 106.367 1159.79 72.3467 1143.27 58.3467C1131.23 47.9867 1131.65 46.5867 1146.49 44.7667C1157.69 43.3667 1161.19 42.5267 1161.19 41.2667C1161.19 39.5867 1143.27 31.1867 1130.39 26.8467C1097.77 15.9267 1063.47 12.4267 1032.53 16.9067Z" fill="white"/>
<path d="M1033.8 34.0412C1019.13 36.1745 998.334 41.3745 986.6 45.7745C968.2 52.7079 944.067 66.5745 925 80.9745C905.8 95.6412 872.2 131.908 877.8 131.908C879.4 131.908 889 126.441 898.067 120.575C903.667 116.708 904.467 118.175 899.8 124.308C887.8 140.441 869 180.308 858.334 212.708C848.734 241.775 831.534 314.308 830.6 329.241C830.067 337.775 830.2 337.775 832.467 334.575C833.8 332.708 838.467 326.308 842.867 320.175C847.4 314.175 851 308.575 851 307.908C851 307.108 851.667 306.575 852.334 306.575C854.067 306.575 854.067 308.175 851.8 314.841C849.934 320.308 838.334 362.441 829.534 395.375C825.8 409.908 825.267 413.508 824.734 437.241C823.8 472.975 825.8 484.441 840.6 526.575C844.334 537.241 848.734 548.708 850.467 552.175C852.334 555.775 853.267 558.575 852.867 558.575C852.334 558.575 849.4 556.308 846.334 553.508C831 539.908 827 536.975 827 539.641C827 544.308 829.934 550.975 840.067 569.241C853.134 592.975 862.067 605.508 878.867 622.841C906.2 651.375 928.867 664.575 981.134 682.575C1027.13 698.308 1105.8 721.241 1114.2 721.241C1118.33 721.241 1119 720.841 1118.47 718.841C1118.07 717.641 1117.13 712.708 1116.33 708.041C1114.87 700.041 1115 699.241 1118.33 692.575C1122.33 684.308 1131.93 674.975 1153.67 657.908C1185.27 633.375 1216.6 597.108 1239.27 558.841C1249.8 541.241 1270.6 500.441 1278.6 481.908C1283.4 470.975 1293.67 440.575 1293.67 437.641C1293.67 436.708 1292.73 435.908 1291.67 435.908C1290.6 435.908 1289.67 436.841 1289.67 438.041C1289.67 439.241 1288.47 441.775 1286.87 443.641C1281.8 450.308 1267.53 469.908 1263.13 476.175C1260.87 479.775 1258.2 482.575 1257.53 482.575C1256.73 482.575 1256.47 482.175 1256.87 481.508C1257.67 480.175 1269.93 439.375 1273.4 426.575C1276.73 414.441 1283.67 381.508 1286.47 364.041C1288.2 354.308 1288.87 338.308 1289.27 298.041C1289.93 241.908 1289.4 230.575 1286.2 230.575C1285 230.575 1284.33 231.908 1284.33 234.175C1284.33 239.108 1273.4 281.108 1267.67 298.308C1259.67 321.908 1251.13 339.641 1248.33 337.908C1246.87 336.975 1244.6 318.841 1243.67 300.575C1241.67 263.908 1236.33 230.308 1227.67 200.441C1219.8 172.708 1210.33 152.975 1194.07 130.308C1186.33 119.241 1155 86.8412 1139.27 73.5079C1127.8 63.6412 1128.2 62.3079 1142.33 60.5745C1153 59.2412 1156.33 58.4411 1156.33 57.2411C1156.33 55.6411 1139.27 47.6411 1127 43.5078C1095.93 33.1078 1063.27 29.7745 1033.8 34.0412Z" fill="white"/>
<path d="M1033.8 34.0412C1019.13 36.1745 998.334 41.3745 986.6 45.7745C968.2 52.7078 944.067 66.5745 925 80.9745C905.8 95.6412 872.2 131.908 877.8 131.908C879.4 131.908 889 126.441 898.067 120.575C903.667 116.708 904.467 118.175 899.8 124.308C887.8 140.441 869 180.308 858.334 212.708C848.734 241.775 831.534 314.308 830.6 329.241C830.067 337.775 830.2 337.775 832.467 334.575C833.8 332.708 838.467 326.308 842.867 320.175C847.4 314.175 851 308.575 851 307.908C851 307.108 851.667 306.575 852.334 306.575C854.067 306.575 854.067 308.175 851.8 314.841C849.934 320.308 838.334 362.441 829.534 395.375C825.8 409.908 825.267 413.508 824.734 437.241C823.8 472.975 825.8 484.441 840.6 526.575C844.334 537.241 848.734 548.708 850.467 552.175C852.334 555.775 853.267 558.575 852.867 558.575C852.334 558.575 849.4 556.308 846.334 553.508C831 539.908 827 536.975 827 539.641C827 544.308 829.934 550.975 840.067 569.241C853.134 592.975 862.067 605.508 878.867 622.841C906.2 651.375 928.867 664.575 981.134 682.575C1027.13 698.308 1105.8 721.241 1114.2 721.241C1118.33 721.241 1119 720.841 1118.47 718.841C1118.07 717.641 1117.13 712.708 1116.33 708.041C1114.87 700.041 1115 699.241 1118.33 692.575C1122.33 684.308 1131.93 674.975 1153.67 657.908C1185.27 633.375 1216.6 597.108 1239.27 558.841C1249.8 541.241 1270.6 500.441 1278.6 481.908C1283.4 470.975 1293.67 440.575 1293.67 437.641C1293.67 436.708 1292.73 435.908 1291.67 435.908C1290.6 435.908 1289.67 436.841 1289.67 438.041C1289.67 439.241 1288.47 441.775 1286.87 443.641C1281.8 450.308 1267.53 469.908 1263.13 476.175C1260.87 479.775 1258.2 482.575 1257.53 482.575C1256.73 482.575 1256.47 482.175 1256.87 481.508C1257.67 480.175 1269.93 439.375 1273.4 426.575C1276.73 414.441 1283.67 381.508 1286.47 364.041C1288.2 354.308 1288.87 338.308 1289.27 298.041C1289.93 241.908 1289.4 230.575 1286.2 230.575C1285 230.575 1284.33 231.908 1284.33 234.175C1284.33 239.108 1273.4 281.108 1267.67 298.308C1259.67 321.908 1251.13 339.641 1248.33 337.908C1246.87 336.975 1244.6 318.841 1243.67 300.575C1241.67 263.908 1236.33 230.308 1227.67 200.441C1219.8 172.708 1210.33 152.975 1194.07 130.308C1186.33 119.241 1155 86.8412 1139.27 73.5078C1127.8 63.6412 1128.2 62.3078 1142.33 60.5745C1153 59.2412 1156.33 58.4412 1156.33 57.2412C1156.33 55.6412 1139.27 47.6412 1127 43.5078C1095.93 33.1078 1063.27 29.7745 1033.8 34.0412ZM1068.73 93.1078C1071 93.9078 1070.87 94.1745 1067.8 95.6412C1061.4 98.5745 1061.67 98.8412 1088.73 110.575C1129.67 128.441 1158.47 155.375 1175.13 191.241C1193.13 230.175 1199.4 261.508 1205.53 341.508C1206.47 354.175 1207.27 357.908 1209.67 361.108C1212.33 364.975 1213.13 365.241 1220.87 365.241C1232.47 365.241 1234.47 367.508 1234.07 380.441C1233.8 397.775 1227.67 417.375 1217 435.241C1210.87 445.641 1194.07 468.841 1190.6 471.775C1186.73 474.975 1188.07 476.975 1195 478.441C1198.73 479.241 1202.73 479.908 1203.8 479.908C1206.87 479.908 1203.93 484.575 1194.47 494.441L1186.33 502.975L1194.33 502.175C1198.73 501.641 1205.4 500.841 1209.27 500.441L1216.2 499.508L1214.33 507.375C1211.93 517.641 1203.67 535.375 1195.13 548.308C1181.53 569.108 1159.67 588.708 1108.07 626.575C1094.87 636.308 1083.67 643.641 1083 643.108C1081.93 641.775 1076.33 614.175 1076.33 609.641C1076.33 607.641 1077 606.975 1078.73 607.241C1079.93 607.508 1083.8 608.175 1087.4 608.575C1093 609.375 1093.67 609.775 1093.67 612.708C1093.67 614.975 1094.33 615.908 1096.33 615.908C1098.33 615.908 1103.4 608.441 1118.07 583.508C1149.53 530.575 1159.67 511.508 1172.73 480.441C1179.13 464.975 1184.2 447.375 1182.6 445.641C1182.2 445.375 1177.13 445.775 1171.27 446.575C1165.4 447.508 1159.67 447.908 1158.6 447.641C1156.87 447.375 1157.93 443.508 1164.47 426.575C1168.87 415.241 1173.4 404.575 1174.47 402.841C1176.33 400.041 1176.2 399.908 1172.73 399.908C1170.6 399.908 1165.13 401.108 1160.47 402.575C1155.67 404.041 1151.53 404.975 1151.27 404.575C1151 404.308 1152.2 402.041 1154.07 399.641C1162.07 389.108 1167 362.975 1167 331.908C1167 298.308 1162.87 284.975 1143 254.575C1129.27 233.508 1095 201.108 1095 209.241C1095 209.908 1095.93 210.975 1097 211.508C1100.33 213.375 1121.13 245.641 1126.87 257.908C1133.8 272.308 1142.07 297.508 1144.47 310.575C1145.4 316.041 1146.2 328.708 1146.07 338.575C1146.07 368.975 1139 389.641 1120.33 414.575C1109.4 429.108 1100.07 438.975 1089.8 446.975C1085.93 450.041 1083.27 452.708 1083.93 452.841C1085.27 453.375 1111.13 444.041 1125.93 437.775C1130.2 436.041 1134.2 434.575 1135 434.575C1136.73 434.575 1121.93 452.441 1103.27 472.841C1094.33 482.708 1091.53 486.575 1093.27 486.575C1094.73 486.575 1106.33 483.241 1119.13 479.241C1131.8 475.241 1143.13 471.908 1144.07 471.908C1146.6 471.908 1146.07 484.308 1143 496.441C1137.8 517.108 1129.13 527.241 1106.2 539.775C1090.2 548.575 1072.33 559.908 1064.6 566.175C1061.4 568.708 1058.73 570.708 1058.47 570.441C1058.33 570.175 1055.4 562.708 1051.93 553.908C1043.4 531.641 1041.8 527.908 1040.6 527.908C1036.73 527.908 1029 555.508 1027 575.641C1025.67 590.041 1027.27 623.108 1029.93 636.041C1030.73 640.308 1031.13 644.308 1030.6 644.708C1028.2 647.108 964.2 616.175 929.667 596.041C911 585.108 903 579.108 903 575.908C903 575.375 906.2 574.441 910.067 573.908C922.2 572.441 922.334 572.308 918.467 567.375C913.267 560.441 898.734 533.775 893.267 521.108C875 478.575 871.8 441.108 882.467 395.241C887 375.775 902.334 323.775 912.334 294.308C914.6 287.908 916.334 282.175 916.334 281.508C916.334 280.841 911.534 281.241 905.667 282.308C899.667 283.375 894.6 283.908 894.2 283.508C892.467 281.775 914.2 208.708 923.134 186.175C933.267 160.708 947.534 135.241 957.4 124.841C968.867 112.841 999 96.8412 1016.73 93.2412C1023.67 91.9078 1065.4 91.7745 1068.73 93.1078Z" fill="black"/>
<path d="M1416.65 322.53C1392.71 338.35 1368.21 370.27 1345.81 415.21C1322.85 461.41 1310.11 499.21 1302.41 543.87C1300.87 552.55 1299.33 559.97 1298.91 560.39C1298.63 560.81 1297.51 558.43 1296.67 555.21C1292.75 540.51 1291.07 524.55 1290.23 490.53L1289.25 453.99L1285.89 458.05C1279.03 466.73 1262.23 508.87 1255.65 534.49C1251.59 549.61 1246.97 573.55 1244.87 589.51C1240.81 621.57 1240.81 679.67 1244.87 712.01C1252.29 769.55 1270.63 826.11 1319.77 943.71C1338.95 989.77 1346.93 1012.87 1348.05 1025.89C1348.47 1031.21 1348.47 1035.41 1348.05 1035.41C1347.07 1035.41 1329.85 1014.13 1324.25 1006.15C1322.01 1002.93 1319.77 1000.41 1319.07 1000.41C1317.53 1000.41 1319.07 1006.15 1321.31 1008.81C1322.29 1010.07 1328.31 1021.55 1334.47 1034.29L1345.81 1057.67L1347.21 1076.29C1347.91 1086.51 1348.75 1095.61 1349.17 1096.59C1349.45 1097.71 1352.53 1097.29 1359.95 1095.33C1374.79 1091.41 1402.65 1092.53 1420.57 1097.85C1431.07 1100.93 1436.67 1101.63 1455.15 1102.19C1497.99 1103.59 1521.65 1096.45 1564.63 1069.29C1577.93 1060.89 1584.51 1055.57 1597.11 1042.55C1645.13 993.27 1679.01 934.05 1706.45 852.01C1718.21 816.73 1729.41 772.63 1729.27 762.13C1729.13 759.19 1728.85 759.19 1724.93 763.81C1722.55 766.47 1713.45 777.67 1704.63 788.59C1695.81 799.51 1687.97 808.89 1687.13 809.45C1686.01 810.15 1685.73 808.89 1686.29 805.67C1686.71 803.01 1688.67 791.11 1690.49 779.21C1696.23 743.65 1697.49 724.33 1697.63 670.01C1697.77 598.47 1695.11 575.09 1676.63 482.41C1669.63 447.83 1666.41 434.81 1664.87 434.81C1664.17 434.81 1663.05 437.89 1662.07 441.67C1659.13 453.85 1653.95 468.97 1652.55 469.53C1651.85 469.67 1650.73 468.13 1650.31 466.03C1647.09 453.57 1618.81 396.03 1604.81 374.05C1592.91 355.57 1590.39 349.97 1590.95 344.09C1591.65 336.25 1597.11 334.01 1616.15 334.01C1624.41 334.01 1631.41 333.45 1631.83 332.75C1633.51 330.09 1630.71 326.87 1623.15 323.23C1615.17 319.31 1615.03 319.31 1586.47 319.31C1564.77 319.31 1554.69 320.01 1545.59 321.83C1512.13 328.55 1473.91 346.89 1441.01 372.09C1429.11 381.19 1423.23 384.13 1420.99 381.89C1418.33 379.23 1419.59 363.13 1424.07 342.41C1430.37 314.13 1430.09 313.57 1416.65 322.53Z" fill="white"/>
<path d="M1419.93 340.975C1397.13 356.042 1373.8 386.442 1352.47 429.242C1330.6 473.242 1318.47 509.242 1311.13 551.775C1309.67 560.042 1308.2 567.109 1307.8 567.509C1307.53 567.909 1306.47 565.642 1305.67 562.575C1301.93 548.575 1300.33 533.375 1299.53 500.975L1298.6 466.175L1295.4 470.042C1288.87 478.309 1272.87 518.442 1266.6 542.842C1262.73 557.242 1258.33 580.042 1256.33 595.242C1252.47 625.775 1252.47 681.109 1256.33 711.909C1263.4 766.709 1280.87 820.575 1327.67 932.575C1345.93 976.442 1353.53 998.442 1354.6 1010.84C1355 1015.91 1355 1019.91 1354.6 1019.91C1353.67 1019.91 1337.27 999.642 1331.93 992.042C1329.8 988.975 1327.67 986.575 1327 986.575C1325.53 986.575 1327 992.042 1329.13 994.575C1330.07 995.775 1335.8 1006.71 1341.67 1018.84L1352.47 1041.11L1353.8 1058.84C1354.47 1068.58 1355.27 1077.24 1355.67 1078.18C1355.93 1079.24 1358.87 1078.84 1365.93 1076.98C1380.07 1073.24 1406.6 1074.31 1423.67 1079.38C1433.67 1082.31 1439 1082.98 1456.6 1083.51C1497.4 1084.84 1519.93 1078.04 1560.87 1052.18C1573.53 1044.18 1579.8 1039.11 1591.8 1026.71C1637.53 979.775 1669.8 923.375 1695.93 845.242C1707.13 811.642 1717.8 769.642 1717.67 759.642C1717.53 756.842 1717.27 756.842 1713.53 761.242C1711.27 763.775 1702.6 774.442 1694.2 784.842C1685.8 795.242 1678.33 804.175 1677.53 804.709C1676.47 805.375 1676.2 804.175 1676.73 801.109C1677.13 798.575 1679 787.242 1680.73 775.909C1686.2 742.042 1687.4 723.642 1687.53 671.909C1687.67 603.775 1685.13 581.509 1667.53 493.242C1660.87 460.309 1657.8 447.909 1656.33 447.909C1655.67 447.909 1654.6 450.842 1653.67 454.442C1650.87 466.042 1645.93 480.442 1644.6 480.975C1643.93 481.109 1642.87 479.642 1642.47 477.642C1639.4 465.775 1612.47 410.975 1599.13 390.042C1587.8 372.442 1585.4 367.109 1585.93 361.509C1586.6 354.042 1591.8 351.909 1609.93 351.909C1617.8 351.909 1624.47 351.375 1624.87 350.709C1626.47 348.175 1623.8 345.109 1616.6 341.642C1609 337.909 1608.87 337.909 1581.67 337.909C1561 337.909 1551.4 338.575 1542.73 340.309C1510.87 346.709 1474.47 364.175 1443.13 388.175C1431.8 396.842 1426.2 399.642 1424.07 397.509C1421.53 394.975 1422.73 379.642 1427 359.909C1433 332.975 1432.73 332.442 1419.93 340.975Z" fill="white"/>
<path d="M1419.93 340.975C1397.13 356.042 1373.8 386.442 1352.47 429.242C1330.6 473.242 1318.47 509.242 1311.13 551.775C1309.67 560.042 1308.2 567.109 1307.8 567.509C1307.53 567.909 1306.47 565.642 1305.67 562.575C1301.93 548.575 1300.33 533.375 1299.53 500.975L1298.6 466.175L1295.4 470.042C1288.87 478.309 1272.87 518.442 1266.6 542.842C1262.73 557.242 1258.33 580.042 1256.33 595.242C1252.47 625.775 1252.47 681.109 1256.33 711.909C1263.4 766.709 1280.87 820.575 1327.67 932.575C1345.93 976.442 1353.53 998.442 1354.6 1010.84C1355 1015.91 1355 1019.91 1354.6 1019.91C1353.67 1019.91 1337.27 999.642 1331.93 992.042C1329.8 988.975 1327.67 986.575 1327 986.575C1325.53 986.575 1327 992.042 1329.13 994.575C1330.07 995.775 1335.8 1006.71 1341.67 1018.84L1352.47 1041.11L1353.8 1058.84C1354.47 1068.58 1355.27 1077.24 1355.67 1078.18C1355.93 1079.24 1358.87 1078.84 1365.93 1076.98C1380.07 1073.24 1406.6 1074.31 1423.67 1079.38C1433.67 1082.31 1439 1082.98 1456.6 1083.51C1497.4 1084.84 1519.93 1078.04 1560.87 1052.18C1573.53 1044.18 1579.8 1039.11 1591.8 1026.71C1637.53 979.775 1669.8 923.375 1695.93 845.242C1707.13 811.642 1717.8 769.642 1717.67 759.642C1717.53 756.842 1717.27 756.842 1713.53 761.242C1711.27 763.775 1702.6 774.442 1694.2 784.842C1685.8 795.242 1678.33 804.175 1677.53 804.709C1676.47 805.375 1676.2 804.175 1676.73 801.109C1677.13 798.575 1679 787.242 1680.73 775.909C1686.2 742.042 1687.4 723.642 1687.53 671.909C1687.67 603.775 1685.13 581.509 1667.53 493.242C1660.87 460.309 1657.8 447.909 1656.33 447.909C1655.67 447.909 1654.6 450.842 1653.67 454.442C1650.87 466.042 1645.93 480.442 1644.6 480.975C1643.93 481.109 1642.87 479.642 1642.47 477.642C1639.4 465.775 1612.47 410.975 1599.13 390.042C1587.8 372.442 1585.4 367.109 1585.93 361.509C1586.6 354.042 1591.8 351.909 1609.93 351.909C1617.8 351.909 1624.47 351.375 1624.87 350.709C1626.47 348.175 1623.8 345.109 1616.6 341.642C1609 337.909 1608.87 337.909 1581.67 337.909C1561 337.909 1551.4 338.575 1542.73 340.309C1510.87 346.709 1474.47 364.175 1443.13 388.175C1431.8 396.842 1426.2 399.642 1424.07 397.509C1421.53 394.975 1422.73 379.642 1427 359.909C1433 332.975 1432.73 332.442 1419.93 340.975ZM1543.67 420.442C1553.93 426.442 1569 449.242 1579.13 473.909C1582.07 481.242 1588.6 499.242 1593.67 513.909C1605 547.109 1605.13 547.642 1609.13 552.842C1611.67 556.309 1613.53 557.242 1616.87 557.242C1620.2 557.242 1621.53 558.042 1622.73 560.442C1626.87 569.509 1628.73 583.642 1631.67 626.575C1635.53 684.042 1634.07 712.442 1623.67 777.242C1619.27 804.575 1617.93 818.709 1619.13 827.509C1620.47 837.242 1621.8 838.575 1630.47 838.575C1638.87 838.575 1640.07 840.442 1637 849.242C1630.2 868.442 1594.2 924.175 1572.47 949.109C1557 966.709 1536.07 980.975 1510.33 991.509C1501.8 994.975 1491 997.242 1491 995.509C1491 995.375 1496.07 990.042 1502.2 983.642C1511.27 974.175 1514.73 969.242 1520.73 957.642C1529 941.509 1544.33 905.242 1546.87 895.642C1548.87 888.709 1551 888.309 1551.13 894.975C1551.13 897.375 1551.93 901.642 1552.87 904.575L1554.33 909.775L1557.27 905.775C1562.47 898.575 1586.73 833.109 1594.87 804.709C1605.67 766.975 1607.53 751.375 1607.53 696.575C1607.53 650.442 1607.13 643.375 1601.4 608.175C1598.73 591.509 1598.47 590.575 1595.53 590.575C1593.8 590.575 1592.07 591.242 1591.67 591.909C1590.73 593.509 1571.93 606.309 1569 607.375C1567.4 608.042 1567 606.575 1567 598.842C1567 588.042 1562.33 572.842 1553.4 555.242C1545.67 539.775 1522.07 504.309 1518.87 503.509C1517.53 503.109 1516.33 502.042 1516.33 500.975C1516.33 499.242 1508.73 495.109 1507.53 496.309C1507.27 496.575 1509.27 501.375 1512.2 506.709C1520.07 521.375 1538.07 561.642 1542.2 573.909C1546.87 587.375 1548.07 610.709 1545.8 641.909C1545 653.642 1543.93 668.975 1543.53 675.909L1542.87 688.575L1547 683.909C1549.27 681.375 1559 668.175 1568.6 654.842C1578.07 641.375 1586.47 630.842 1587 631.509C1588.33 632.842 1586.2 700.042 1584.33 717.242C1579.27 763.509 1572.07 788.842 1550.87 834.975C1546.33 844.709 1542.33 853.109 1541.8 853.642C1541.27 854.175 1538.2 844.842 1535.13 832.975C1527.8 805.109 1527.8 804.842 1526.07 804.309C1525.27 804.042 1524.47 809.909 1523.93 820.442C1523 838.442 1519.4 855.242 1509 889.909C1501.8 914.042 1499.13 919.642 1490.47 928.975C1479.53 940.709 1452.47 964.309 1440.2 972.709C1434.33 976.842 1425.53 981.242 1418.47 983.775C1411.8 986.175 1405.67 988.709 1404.73 989.509C1402.33 991.375 1402.2 990.575 1400.33 967.242C1396.87 924.575 1394.47 916.975 1357.13 835.909C1312.33 738.842 1308.73 726.442 1307.4 665.642C1306.6 631.242 1307.67 618.042 1311.93 603.642L1313.93 596.575L1316.73 601.909C1319.4 607.109 1333.93 641.775 1339.27 655.909C1341.93 662.709 1342.2 662.975 1343 659.775C1343.53 657.909 1344.47 650.975 1344.87 644.442C1346.33 627.375 1353.13 579.375 1356.47 564.175C1361.67 540.442 1368.87 525.109 1386.73 499.642C1398.33 483.242 1404.47 476.575 1407.27 477.509C1408.47 477.909 1409.4 483.242 1410.33 495.909C1411.8 514.842 1413.4 518.442 1416.73 510.309C1419.53 503.642 1435.8 477.775 1443.13 468.442C1458.2 449.375 1477.4 436.575 1512.33 422.442C1527.8 416.175 1535.4 415.642 1543.67 420.442Z" fill="black"/>
<path d="M752.676 694.377C750.436 694.657 743.436 695.637 737.276 696.477C731.116 697.317 716.696 699.837 705.076 702.077C672.316 708.517 669.516 710.057 684.216 713.277C688.416 714.257 691.356 715.377 690.796 715.937C690.236 716.497 683.376 718.597 675.676 720.837C637.316 731.477 610.996 747.577 577.676 781.037C555.976 802.597 544.916 817.577 534.836 838.437C521.956 865.177 513.696 893.597 501.376 952.537C491.716 998.877 479.396 1041.72 475.196 1043.12C474.216 1043.54 473.376 1040.88 472.816 1035.98C472.396 1031.64 471.556 1024.64 471.136 1020.44C470.716 1016.24 469.876 1012.74 469.316 1012.74C468.756 1012.74 467.496 1015.82 466.656 1019.46C464.696 1028.28 452.796 1048.86 443.556 1059.92C433.196 1072.1 421.716 1081.9 379.576 1114.8C334.916 1149.52 307.336 1175.98 292.496 1198.24C275.556 1223.58 261.416 1256.2 255.396 1283.36C251.616 1300.86 251.896 1342.86 256.236 1362.74C266.036 1408.8 292.216 1458.92 322.176 1488.88C337.016 1503.86 343.036 1507.5 368.516 1516.88C392.176 1525.56 405.336 1532.56 428.296 1548.94C435.016 1553.56 438.656 1554.54 435.296 1550.62C434.176 1549.36 430.256 1542.92 426.476 1536.34C412.616 1511.84 413.176 1513.94 421.296 1518C424.096 1519.4 439.216 1524.72 454.896 1529.9L483.176 1539.14L500.396 1539L517.476 1538.86L507.676 1535.78C502.356 1533.96 491.296 1529.48 483.176 1525.56C469.736 1519.26 468.336 1518.14 466.656 1513.38C465.536 1510.44 465.116 1507.78 465.536 1507.36C466.796 1506.1 524.896 1527.8 539.596 1534.94C559.336 1544.74 574.036 1555.1 596.016 1574.98C658.456 1631.4 722.856 1672.14 768.076 1684.04C792.436 1690.34 837.516 1690.34 868.876 1684.04C883.856 1681.1 906.536 1674.1 914.656 1669.9C921.936 1666.26 932.576 1656.74 932.576 1653.94C932.576 1651.56 925.856 1652.96 913.116 1658.14C905.836 1661.08 898.696 1662.76 889.316 1663.74C876.716 1665 845.356 1666.4 846.056 1665.84C846.336 1665.56 857.816 1660.52 871.676 1654.64C931.316 1628.88 943.216 1622.16 1009.02 1577.22C1030.3 1562.8 1048.36 1552.3 1086.3 1532.14C1111.78 1518.7 1141.18 1504.84 1141.18 1506.38C1141.18 1506.8 1140.2 1509.04 1138.8 1511.56C1134.6 1519.68 1125.78 1547.96 1123.68 1560C1122.56 1566.44 1121.58 1579.32 1121.58 1588.56V1605.5L1126.9 1596.68C1142.16 1571.48 1181.08 1544.18 1220.28 1531.44C1235.68 1526.4 1257.38 1521.78 1293.64 1516.04C1328.64 1510.44 1346.56 1503.86 1369.1 1488.32C1381.28 1479.92 1384.78 1475.86 1391.22 1463.12C1399.62 1446.74 1401.72 1435.54 1402.56 1405.3C1403.26 1384.02 1402.84 1375.62 1401.02 1364C1399.62 1356.02 1398.36 1348.32 1397.94 1346.92C1397.24 1344.68 1397.8 1344.68 1404.66 1347.48C1408.72 1349.02 1412.92 1350.98 1413.76 1351.82C1417.26 1354.62 1415.72 1344.68 1410.54 1331.8C1404.1 1315.14 1404.52 1312.76 1412.78 1320.04C1416.28 1323.12 1422.44 1328.44 1426.64 1331.8L1434.2 1338.1L1433.36 1312.2C1432.52 1284.9 1431.68 1279.86 1422.3 1250.04C1407.04 1200.9 1392.48 1175.42 1326.96 1082.74C1314.64 1065.38 1304.42 1050.54 1304 1049.7C1303.72 1048.86 1309.46 1047.6 1319.96 1046.48C1329.06 1045.64 1337.04 1044.24 1337.6 1043.68C1338.3 1042.98 1336.34 1041.02 1333.4 1039.34C1323.74 1033.46 1306.24 1014.7 1296.16 999.437C1290.7 991.037 1279.92 964.997 1268.58 932.237C1250.66 880.857 1235.96 847.117 1221.4 824.437C1199.42 790.417 1168.48 770.537 1120.18 759.477C1102.26 755.417 1089.8 753.737 1061.94 751.777C1047.94 750.797 1035.9 749.537 1034.92 748.977C1034.08 748.417 1033.8 746.457 1034.22 744.777C1034.92 741.837 1034.36 741.417 1029.6 740.717C1026.66 740.437 1015.18 740.717 1003.98 741.557C992.776 742.257 960.156 742.957 931.456 743.097L879.096 743.237L875.736 739.317C870.416 733.017 872.656 730.777 890.996 724.057C901.776 720.137 900.236 719.437 855.576 708.237C839.056 704.037 818.196 699.277 809.376 697.737C794.256 694.937 761.916 692.977 752.676 694.377Z" fill="white"/>
<path d="M757.001 718.042C754.867 718.308 748.201 719.242 742.334 720.042C736.467 720.842 722.734 723.242 711.667 725.375C680.467 731.508 677.801 732.975 691.801 736.042C695.801 736.975 698.601 738.042 698.067 738.575C697.534 739.108 691.001 741.108 683.667 743.242C647.134 753.375 622.067 768.708 590.334 800.575C569.667 821.108 559.134 835.375 549.534 855.242C537.267 880.708 529.401 907.775 517.667 963.909C508.467 1008.04 496.734 1048.84 492.734 1050.18C491.801 1050.58 491.001 1048.04 490.467 1043.38C490.067 1039.24 489.267 1032.58 488.867 1028.58C488.467 1024.58 487.667 1021.24 487.134 1021.24C486.601 1021.24 485.401 1024.18 484.601 1027.64C482.734 1036.04 471.401 1055.64 462.601 1066.18C452.734 1077.78 441.801 1087.11 401.667 1118.44C359.134 1151.51 332.867 1176.71 318.734 1197.91C302.601 1222.04 289.134 1253.11 283.401 1278.98C279.801 1295.64 280.067 1335.64 284.201 1354.58C293.534 1398.44 318.467 1446.18 347.001 1474.71C361.134 1488.98 366.867 1492.44 391.134 1501.38C413.667 1509.64 426.201 1516.31 448.067 1531.91C454.467 1536.31 457.934 1537.24 454.734 1533.51C453.667 1532.31 449.934 1526.18 446.334 1519.91C433.134 1496.58 433.667 1498.58 441.401 1502.44C444.067 1503.78 458.467 1508.84 473.401 1513.78L500.334 1522.58L516.734 1522.44L533.001 1522.31L523.667 1519.38C518.601 1517.64 508.067 1513.38 500.334 1509.64C487.534 1503.64 486.201 1502.58 484.601 1498.04C483.534 1495.24 483.134 1492.71 483.534 1492.31C484.734 1491.11 540.067 1511.78 554.067 1518.58C572.867 1527.91 586.867 1537.78 607.801 1556.71C667.267 1610.44 728.601 1649.24 771.667 1660.58C794.867 1666.58 837.801 1666.58 867.667 1660.58C881.934 1657.78 903.534 1651.11 911.267 1647.11C918.201 1643.64 928.334 1634.58 928.334 1631.91C928.334 1629.64 921.934 1630.98 909.801 1635.91C902.867 1638.71 896.067 1640.31 887.134 1641.24C875.134 1642.44 845.267 1643.78 845.934 1643.24C846.201 1642.98 857.134 1638.18 870.334 1632.58C927.134 1608.04 938.467 1601.64 1001.13 1558.84C1021.4 1545.11 1038.6 1535.11 1074.73 1515.91C1099 1503.11 1127 1489.91 1127 1491.38C1127 1491.78 1126.07 1493.91 1124.73 1496.31C1120.73 1504.04 1112.33 1530.98 1110.33 1542.44C1109.27 1548.58 1108.33 1560.84 1108.33 1569.64V1585.78L1113.4 1577.38C1127.93 1553.38 1165 1527.38 1202.33 1515.24C1217 1510.44 1237.67 1506.04 1272.2 1500.58C1305.53 1495.24 1322.6 1488.98 1344.07 1474.18C1355.67 1466.18 1359 1462.31 1365.13 1450.18C1373.13 1434.58 1375.13 1423.91 1375.93 1395.11C1376.6 1374.84 1376.2 1366.84 1374.47 1355.78C1373.13 1348.18 1371.93 1340.84 1371.53 1339.51C1370.87 1337.38 1371.4 1337.38 1377.93 1340.04C1381.8 1341.51 1385.8 1343.38 1386.6 1344.18C1389.93 1346.84 1388.47 1337.38 1383.53 1325.11C1377.4 1309.24 1377.8 1306.98 1385.67 1313.91C1389 1316.84 1394.87 1321.91 1398.87 1325.11L1406.07 1331.11L1405.27 1306.44C1404.47 1280.44 1403.67 1275.64 1394.73 1247.24C1380.2 1200.44 1366.33 1176.18 1303.93 1087.91C1292.2 1071.38 1282.47 1057.24 1282.07 1056.44C1281.8 1055.64 1287.27 1054.44 1297.27 1053.38C1305.93 1052.58 1313.53 1051.24 1314.07 1050.71C1314.73 1050.04 1312.87 1048.18 1310.07 1046.58C1300.87 1040.98 1284.2 1023.11 1274.6 1008.58C1269.4 1000.58 1259.13 975.775 1248.33 944.575C1231.27 895.642 1217.27 863.509 1203.4 841.909C1182.47 809.509 1153 790.575 1107 780.042C1089.93 776.175 1078.07 774.575 1051.53 772.708C1038.2 771.775 1026.73 770.575 1025.8 770.042C1025 769.508 1024.73 767.642 1025.13 766.042C1025.8 763.242 1025.27 762.842 1020.73 762.175C1017.93 761.909 1007 762.175 996.334 762.975C985.667 763.642 954.601 764.309 927.267 764.442L877.401 764.575L874.201 760.842C869.134 754.842 871.267 752.708 888.734 746.308C899.001 742.575 897.534 741.908 855.001 731.242C839.267 727.242 819.401 722.708 811.001 721.242C796.601 718.575 765.801 716.708 757.001 718.042Z" fill="white"/>
<path d="M757.001 718.042C754.867 718.308 748.201 719.242 742.334 720.042C736.467 720.842 722.734 723.242 711.667 725.375C680.467 731.508 677.801 732.975 691.801 736.042C695.801 736.975 698.601 738.042 698.067 738.575C697.534 739.108 691.001 741.108 683.667 743.242C647.134 753.375 622.067 768.708 590.334 800.575C569.667 821.108 559.134 835.375 549.534 855.242C537.267 880.708 529.401 907.775 517.667 963.908C508.467 1008.04 496.734 1048.84 492.734 1050.18C491.801 1050.58 491.001 1048.04 490.467 1043.38C490.067 1039.24 489.267 1032.58 488.867 1028.58C488.467 1024.58 487.667 1021.24 487.134 1021.24C486.601 1021.24 485.401 1024.18 484.601 1027.64C482.734 1036.04 471.401 1055.64 462.601 1066.18C452.734 1077.78 441.801 1087.11 401.667 1118.44C359.134 1151.51 332.867 1176.71 318.734 1197.91C302.601 1222.04 289.134 1253.11 283.401 1278.98C279.801 1295.64 280.067 1335.64 284.201 1354.58C293.534 1398.44 318.467 1446.18 347.001 1474.71C361.134 1488.98 366.867 1492.44 391.134 1501.38C413.667 1509.64 426.201 1516.31 448.067 1531.91C454.467 1536.31 457.934 1537.24 454.734 1533.51C453.667 1532.31 449.934 1526.18 446.334 1519.91C433.134 1496.58 433.667 1498.58 441.401 1502.44C444.067 1503.78 458.467 1508.84 473.401 1513.78L500.334 1522.58L516.734 1522.44L533.001 1522.31L523.667 1519.38C518.601 1517.64 508.067 1513.38 500.334 1509.64C487.534 1503.64 486.201 1502.58 484.601 1498.04C483.534 1495.24 483.134 1492.71 483.534 1492.31C484.734 1491.11 540.067 1511.78 554.067 1518.58C572.867 1527.91 586.867 1537.78 607.801 1556.71C667.267 1610.44 728.601 1649.24 771.667 1660.58C794.867 1666.58 837.801 1666.58 867.667 1660.58C881.934 1657.78 903.534 1651.11 911.267 1647.11C918.201 1643.64 928.334 1634.58 928.334 1631.91C928.334 1629.64 921.934 1630.98 909.801 1635.91C902.867 1638.71 896.067 1640.31 887.134 1641.24C875.134 1642.44 845.267 1643.78 845.934 1643.24C846.201 1642.98 857.134 1638.18 870.334 1632.58C927.134 1608.04 938.467 1601.64 1001.13 1558.84C1021.4 1545.11 1038.6 1535.11 1074.73 1515.91C1099 1503.11 1127 1489.91 1127 1491.38C1127 1491.78 1126.07 1493.91 1124.73 1496.31C1120.73 1504.04 1112.33 1530.98 1110.33 1542.44C1109.27 1548.58 1108.33 1560.84 1108.33 1569.64V1585.78L1113.4 1577.38C1127.93 1553.38 1165 1527.38 1202.33 1515.24C1217 1510.44 1237.67 1506.04 1272.2 1500.58C1305.53 1495.24 1322.6 1488.98 1344.07 1474.18C1355.67 1466.18 1359 1462.31 1365.13 1450.18C1373.13 1434.58 1375.13 1423.91 1375.93 1395.11C1376.6 1374.84 1376.2 1366.84 1374.47 1355.78C1373.13 1348.18 1371.93 1340.84 1371.53 1339.51C1370.87 1337.38 1371.4 1337.38 1377.93 1340.04C1381.8 1341.51 1385.8 1343.38 1386.6 1344.18C1389.93 1346.84 1388.47 1337.38 1383.53 1325.11C1377.4 1309.24 1377.8 1306.98 1385.67 1313.91C1389 1316.84 1394.87 1321.91 1398.87 1325.11L1406.07 1331.11L1405.27 1306.44C1404.47 1280.44 1403.67 1275.64 1394.73 1247.24C1380.2 1200.44 1366.33 1176.18 1303.93 1087.91C1292.2 1071.38 1282.47 1057.24 1282.07 1056.44C1281.8 1055.64 1287.27 1054.44 1297.27 1053.38C1305.93 1052.58 1313.53 1051.24 1314.07 1050.71C1314.73 1050.04 1312.87 1048.18 1310.07 1046.58C1300.87 1040.98 1284.2 1023.11 1274.6 1008.58C1269.4 1000.58 1259.13 975.775 1248.33 944.575C1231.27 895.642 1217.27 863.508 1203.4 841.908C1182.47 809.508 1153 790.575 1107 780.042C1089.93 776.175 1078.07 774.575 1051.53 772.708C1038.2 771.775 1026.73 770.575 1025.8 770.042C1025 769.508 1024.73 767.642 1025.13 766.042C1025.8 763.242 1025.27 762.842 1020.73 762.175C1017.93 761.908 1007 762.175 996.334 762.975C985.667 763.642 954.601 764.308 927.267 764.442L877.401 764.575L874.201 760.842C869.134 754.842 871.267 752.708 888.734 746.308C899.001 742.575 897.534 741.908 855.001 731.242C839.267 727.242 819.401 722.708 811.001 721.242C796.601 718.575 765.801 716.708 757.001 718.042ZM795.801 816.442C801.801 817.508 808.867 819.242 811.534 820.442C816.201 822.442 816.334 822.575 816.334 830.042C816.334 837.375 816.601 837.908 822.201 843.375C828.201 849.108 841.934 856.308 854.334 860.308C870.201 865.508 898.734 866.442 954.467 863.775C976.201 862.708 985.001 862.708 986.067 863.775C987.134 864.842 986.734 866.842 984.601 871.242C981.001 878.842 981.001 878.842 1002.07 871.908C1022.33 865.242 1037.93 862.575 1057.67 862.575C1093.53 862.575 1109.93 869.508 1135.8 895.242C1156.73 915.908 1163 928.708 1176.33 977.242C1184.6 1007.38 1189 1021.24 1193.13 1029.51C1197.27 1037.78 1197.13 1039.38 1192.07 1042.04C1184.33 1046.04 1183.8 1049.64 1189.53 1060.98C1196.73 1075.24 1223.53 1110.58 1241.8 1129.78C1265.8 1155.24 1284.6 1183.91 1295.53 1211.51C1300.6 1224.18 1307.93 1250.58 1308.6 1258.58L1309 1263.24L1296.73 1264.71C1275.4 1267.38 1276.2 1266.18 1287.27 1279.24C1292.47 1285.51 1297.27 1290.58 1297.93 1290.58C1298.47 1290.58 1299 1291.11 1299 1291.91C1299 1292.71 1294.73 1293.24 1288.87 1293.24C1283.4 1293.24 1279.13 1293.78 1279.53 1294.31C1279.93 1294.98 1282.33 1304.98 1285 1316.71C1295.93 1364.71 1291.8 1395.38 1271.93 1414.31C1263 1422.58 1253.67 1427.38 1232.33 1434.31C1210.07 1441.64 1204.47 1442.44 1172.07 1443.51C1146.2 1444.31 1144.33 1444.18 1144.33 1442.04C1144.33 1440.71 1149.8 1432.04 1156.6 1422.84C1175.13 1397.24 1176.33 1395.51 1175.8 1394.71C1175.53 1394.31 1166.6 1394.31 1156.07 1394.71C1124.87 1396.04 1092.6 1405.11 1059 1421.91C1050.6 1426.04 1039.67 1431.91 1034.73 1434.71C1029.93 1437.64 1025.27 1439.91 1024.47 1439.91C1021 1439.91 1023.53 1399.11 1027.8 1384.18C1030.47 1374.58 1038.6 1357.78 1042.2 1354.31C1046.2 1350.31 1075.27 1336.71 1086.73 1333.38C1091.93 1331.78 1101.27 1329.91 1107.4 1329.24C1121.8 1327.51 1150.6 1328.98 1153.13 1331.51C1154.47 1332.98 1155 1337.11 1155 1347.38C1155 1354.98 1155.27 1361.24 1155.67 1361.24C1158.2 1361.24 1172.47 1352.71 1174.73 1350.04C1176.07 1348.18 1178.6 1342.44 1180.33 1337.24C1183.93 1325.91 1183.53 1315.78 1178.73 1302.58C1175.27 1293.24 1163.13 1274.18 1159 1271.51C1157.53 1270.71 1156.33 1269.24 1156.33 1268.31C1156.33 1267.38 1155.53 1266.58 1154.6 1266.58C1153.53 1266.58 1151.67 1265.38 1150.33 1263.91C1147.93 1261.24 1148.07 1261.24 1152.47 1261.24C1155 1261.38 1161.53 1261.91 1167 1262.58C1172.47 1263.11 1177.27 1263.38 1177.67 1263.11C1177.93 1262.71 1168.2 1252.58 1155.8 1240.44C1143.53 1228.44 1134.07 1218.58 1134.73 1218.58C1135.4 1218.58 1145.27 1222.18 1156.47 1226.44C1213.13 1248.18 1223.4 1252.04 1223.93 1251.51C1224.87 1250.58 1219.13 1237.38 1210.73 1220.84C1203.4 1206.44 1201.93 1204.58 1194.47 1199.11C1171.13 1181.91 1154.2 1171.64 1102.6 1143.64C1066.07 1123.91 1047.13 1112.84 1035.4 1104.44C1017.8 1091.91 1005.93 1073.64 1003.13 1054.98C1001.4 1044.04 1001.13 1025.64 1002.73 1024.84C1003.27 1024.58 1009.13 1025.38 1015.67 1026.71C1035.27 1030.58 1038.6 1029.64 1027.67 1023.11C1019.67 1018.44 1002.87 1000.04 997.401 989.908C993.134 982.042 993.001 981.508 993.134 965.908C993.134 952.442 993.667 948.842 996.067 943.375C999.534 935.775 999.534 935.908 997.134 935.908C994.867 935.908 987.401 944.175 985.267 949.108C984.467 951.108 983.534 964.042 983.134 978.708C982.467 1000.84 981.934 1005.38 980.067 1007.51C973.134 1015.24 973.801 1057.38 981.134 1077.11C992.467 1107.11 1025.67 1138.58 1081 1171.38C1088.33 1175.78 1095.93 1180.18 1098.07 1181.11C1104.6 1184.44 1103.93 1184.71 1076.73 1189.38C1063.27 1191.64 1062.73 1192.18 1068.47 1198.18C1071.13 1200.98 1077.8 1208.98 1083.27 1215.91C1088.73 1222.84 1094.2 1229.38 1095.4 1230.44C1096.6 1231.38 1097.67 1232.71 1097.67 1233.24C1097.67 1233.78 1091.8 1234.58 1084.73 1235.11C1077.53 1235.64 1069.4 1236.44 1066.73 1236.84L1061.8 1237.51L1066.07 1240.58C1073.53 1245.78 1099.4 1263.78 1106.33 1268.71C1110.07 1271.24 1113.93 1273.91 1115 1274.58C1116.07 1275.24 1116.6 1276.04 1116.33 1276.31C1115.93 1276.71 1105.13 1278.31 1092.33 1279.91C1049.93 1285.11 1024.2 1292.04 996.867 1305.38C955.267 1325.64 917.134 1361.91 906.867 1391.11C899.934 1411.11 900.734 1435.64 909.001 1452.04C914.867 1463.78 937.934 1488.71 947.934 1494.31C949.001 1494.98 949.667 1496.18 949.134 1496.98C948.734 1497.64 941.534 1502.84 933.401 1508.31C915.667 1520.04 880.334 1538.44 860.067 1546.31C844.734 1552.31 805.667 1563.91 800.734 1563.91C794.201 1563.91 798.067 1566.31 806.067 1567.24C813.134 1568.04 820.201 1569.38 835.001 1572.71C838.201 1573.38 838.201 1573.51 835.667 1574.98C831.401 1577.38 787.134 1576.71 775.934 1574.04C757.934 1569.78 754.467 1567.24 688.201 1510.44C667.934 1493.11 645.801 1474.44 638.867 1468.98C597.667 1436.18 552.867 1412.18 496.601 1392.71C484.601 1388.58 474.601 1385.24 474.201 1385.24C473.934 1385.24 473.667 1389.11 473.667 1393.91C473.667 1398.71 473.134 1402.58 472.467 1402.58C471.934 1402.58 465.001 1399.51 457.134 1395.91C449.267 1392.18 442.334 1389.51 441.667 1389.91C441.134 1390.31 439.534 1393.51 438.201 1397.24C436.467 1401.91 435.134 1403.91 433.401 1403.91C427.267 1403.91 412.867 1382.18 409.001 1366.84C403.934 1347.24 404.334 1298.18 409.801 1275.91C413.667 1259.78 424.334 1238.44 440.467 1214.58C456.601 1190.71 469.667 1176.71 487.934 1164.04C497.134 1157.78 502.601 1152.71 509.267 1144.44L518.334 1133.24L519.534 1142.58C520.201 1147.64 521.267 1151.91 522.067 1151.91C526.734 1151.91 545.134 1123.64 552.601 1104.71C557.801 1091.64 567.934 1061.24 576.201 1033.91C611.134 918.042 619.934 896.175 641.401 873.108C660.067 852.842 695.401 837.108 741.667 828.575C765.667 824.175 764.867 824.442 763.667 821.508C760.734 814.442 760.467 814.575 773.134 814.575C779.667 814.575 789.934 815.375 795.801 816.442Z" fill="black"/>
</svg>
